<svg xmlns="http://www.w3.org/2000/svg" viewBox="0 0 325.03 109.84"><defs><style>.cls-1{fill:#f2d091;}</style></defs><title>Asset 1</title><g id="Layer_2" data-name="Layer 2"><g id="Layer_1-2" data-name="Layer 1"><path class="cls-1" d="M20.17,48a15,15,0,0,0,5.72-1.16c2.38-1,3.35-2,4.51-2,1.71,0,2.68,2,2.68,3.29s-1,2.26-2.43,3.17A21.06,21.06,0,0,1,20,54C9.44,54,0,47.07,0,33.3S9.5,13,20,13a20.88,20.88,0,0,1,10.61,2.62c1.58,1,2.43,1.89,2.43,3.17s-1,3.41-2.68,3.41c-1.16,0-2.31-1-4.69-1.95A14.58,14.58,0,0,0,19.8,19C13.4,19,7,22.94,7,33.11S13.4,48,20.17,48Z"/><path class="cls-1" d="M49,49.87a4.68,4.68,0,0,1-.48,2.74,3.49,3.49,0,0,1-2.87,1,3.52,3.52,0,0,1-2.92-1,4.6,4.6,0,0,1-.49-2.74V17.15a4.4,4.4,0,0,1,.49-2.68,3.52,3.52,0,0,1,2.92-1,3.49,3.49,0,0,1,2.87,1A4.48,4.48,0,0,1,49,17.15Z"/><path class="cls-1" d="M67.75,49.87a4.4,4.4,0,0,1-.49,2.68,3.22,3.22,0,0,1-2.74,1.09,3.25,3.25,0,0,1-2.8-1.09,4.4,4.4,0,0,1-.49-2.68V16.12c0-1.77,1.1-2.75,3.11-2.75,2.31,0,3.23,1.34,5,3.48l20,24.73V17.15a4.28,4.28,0,0,1,.48-2.62,3.22,3.22,0,0,1,2.74-1.1,3.15,3.15,0,0,1,2.75,1.1,4.25,4.25,0,0,1,.54,2.62V51c0,1.76-1.09,2.74-3,2.74s-3-1.16-4.81-3.41l-20.29-25Z"/><path class="cls-1" d="M114.66,29.21h8.47a3.77,3.77,0,0,1,2.37.55,2.74,2.74,0,0,1,1,2.44,2.86,2.86,0,0,1-1,2.5,3.76,3.76,0,0,1-2.37.48h-8.47V47.31H127a3.71,3.71,0,0,1,2.37.55,2.7,2.7,0,0,1,1,2.43,2.84,2.84,0,0,1-1,2.5,3.7,3.7,0,0,1-2.37.49H111.25c-2.44,0-3.23-1-3.23-3.23v-33c0-2.38.91-3.23,3.23-3.23h14.13a3.73,3.73,0,0,1,2.38.55,2.73,2.73,0,0,1,1,2.44,2.82,2.82,0,0,1-1,2.49,3.72,3.72,0,0,1-2.38.49H114.66Z"/><path class="cls-1" d="M173.57,17c1.1-2.07,2-3.72,4.51-3.72a3.13,3.13,0,0,1,2.56,1c.43.55.73,1.28.91,3.17l2.75,31.56c.06.67.18,1.64.18,2.25,0,1.4-.91,2.31-3.23,2.31s-3.35-.91-3.47-2.74l-1.89-25.34L164.62,48c-.86,1.77-1.4,3.05-3.41,3.05-1.83,0-2.44-1.22-3.29-3.05L146.77,25.5l-2.14,25.4c-.12,1.77-1,2.74-3.41,2.74-2.19,0-3.1-.85-3.1-2.43a15.39,15.39,0,0,1,.18-2l3-31.87a4.86,4.86,0,0,1,1.1-3.16,3.6,3.6,0,0,1,2.62-.92c2.5,0,3.35,1.47,4.51,3.72l11.94,23.88Z"/><path class="cls-1" d="M215.79,41.76H201.48l-3.29,8.6c-.8,1.94-1.4,3.28-4.15,3.28-2.13,0-3-.79-3-2.13a5.18,5.18,0,0,1,.55-2l13.28-32.17c1-2.43,1.76-4.08,4.2-4.08s3.11,1.65,4.08,4.08L225.85,49.5a5.7,5.7,0,0,1,.48,2c0,1.34-1,2.13-3.16,2.13-2.5,0-3.29-1.09-4.15-3.28Zm-12.06-5.84h9.87l-4.87-12.74Z"/><path class="cls-1" d="M265.81,47.55c0,2.2-.48,3.29-3.71,4.51A28.4,28.4,0,0,1,252,53.89c-11.63,0-21-6.89-21-20.47C231,18.8,241.81,13,252.11,13a23.07,23.07,0,0,1,10.66,2.44c1.82,1,2.68,1.76,2.68,3.1s-1,3.41-2.8,3.41c-1,0-2.14-.91-4.15-1.7A18.58,18.58,0,0,0,251.74,19C245,19,238,22.82,238,33.24c0,9.86,6.4,14.68,14.14,14.68a17.21,17.21,0,0,0,6.94-1.4V40.61a4.2,4.2,0,0,1,.49-2.62,4.36,4.36,0,0,1,5.79,0,4.28,4.28,0,0,1,.48,2.62Z"/><path class="cls-1" d="M282.47,51.41c0,.69,0,1.23-.48,1.62a4.82,4.82,0,0,1-2.82.61,4.91,4.91,0,0,1-2.88-.61c-.49-.39-.49-.93-.49-1.62V32.08c0-.68,0-1.18.49-1.58a4.91,4.91,0,0,1,2.88-.61,4.82,4.82,0,0,1,2.82.61c.48.4.48.9.48,1.58Z"/><path class="cls-1" d="M312.12,48a15,15,0,0,0,5.72-1.16c2.38-1,3.35-2,4.51-2,1.71,0,2.68,2,2.68,3.29s-1,2.26-2.44,3.17A21,21,0,0,1,312,54c-10.6,0-20-6.94-20-20.71S301.45,13,312,13a20.82,20.82,0,0,1,10.6,2.62c1.59,1,2.44,1.89,2.44,3.17s-1,3.41-2.68,3.41c-1.16,0-2.31-1-4.69-1.95A14.58,14.58,0,0,0,311.75,19c-6.4,0-12.85,4-12.85,14.13S305.35,48,312.12,48Z"/><polygon class="cls-1" points="284.41 15.72 279.35 12.99 274.23 15.61 275.27 9.95 271.2 5.89 276.9 5.13 279.5 0 281.99 5.19 287.67 6.08 283.5 10.05 284.41 15.72"/><polygon class="cls-1" points="161.01 89.33 168.21 89.33 164.67 80.48 161.01 89.33"/><path class="cls-1" d="M248,77.35a15.73,15.73,0,0,0-2.36.18v8.08s.64.06,1.41.06c4.13,0,6.49-1.3,6.49-4.31S251.1,77.35,248,77.35Z"/><path class="cls-1" d="M0,63.84v46H325v-46ZM33.27,99l-7.7-4.16-7.79,4,1.58-8.61L13.16,84l8.68-1.16,4-7.8,3.78,7.89,8.65,1.36-6.34,6ZM81.66,77.64a3.94,3.94,0,0,1-2.48.48H72.87V98.83a4.16,4.16,0,0,1-.53,2.59,3.37,3.37,0,0,1-2.78,1,3.36,3.36,0,0,1-2.77-1,4.19,4.19,0,0,1-.47-2.59V78.12H60a3.82,3.82,0,0,1-2.47-.48,2.8,2.8,0,0,1-1-2.47,2.68,2.68,0,0,1,1-2.42A3.81,3.81,0,0,1,60,72.22H79.18a3.94,3.94,0,0,1,2.48.53,2.67,2.67,0,0,1,.94,2.42A2.78,2.78,0,0,1,81.66,77.64Zm34.87,21.19a4.36,4.36,0,0,1-.53,2.65,3.22,3.22,0,0,1-2.72,1c-1.47,0-2.3-.3-2.83-1a4.39,4.39,0,0,1-.47-2.65V89.21H95.82v9.62a4.39,4.39,0,0,1-.47,2.65,3.37,3.37,0,0,1-2.78,1,3.41,3.41,0,0,1-2.83-1,4.39,4.39,0,0,1-.47-2.65V75.52a4.22,4.22,0,0,1,.47-2.6,4.43,4.43,0,0,1,5.61,0,4.22,4.22,0,0,1,.47,2.6v7.91H110V75.52a4.22,4.22,0,0,1,.47-2.6,3.34,3.34,0,0,1,2.83-1,3.23,3.23,0,0,1,2.72,1,4.19,4.19,0,0,1,.53,2.6Zm27.73,2.89a4,4,0,0,1-2.48.47H129.62c-2.3,0-3.06-.89-3.06-3.07V75.34c0-2.3.88-3.12,3.06-3.12h11a3.94,3.94,0,0,1,2.48.53,2.5,2.5,0,0,1,.94,2.3,2.63,2.63,0,0,1-.94,2.36,4,4,0,0,1-2.48.47h-7.79v5.66h6a3.85,3.85,0,0,1,2.42.48,2.63,2.63,0,0,1,1,2.36,2.6,2.6,0,0,1-1,2.3,3.91,3.91,0,0,1-2.42.47h-6v7.43h8.91a3.94,3.94,0,0,1,2.48.48,2.57,2.57,0,0,1,.94,2.3A2.63,2.63,0,0,1,144.26,101.72Zm31.8.71c-2.3,0-3-.89-3.9-3.07l-1.88-4.72H158.89L157,99.36c-.77,2-1.48,3.07-3.95,3.07-2.07,0-2.9-.77-2.9-2a4.3,4.3,0,0,1,.48-1.77L161,75.17c.89-2.07,1.65-3.31,4-3.31s3,1.24,3.89,3.31l9.85,23.6a3.92,3.92,0,0,1,.42,1.65C179.13,101.72,178.12,102.43,176.06,102.43Zm29-24.79a3.94,3.94,0,0,1-2.48.48h-6.31V98.83a4.09,4.09,0,0,1-.54,2.59,4.3,4.3,0,0,1-5.54,0,4.19,4.19,0,0,1-.47-2.59V78.12h-6.32a3.86,3.86,0,0,1-2.48-.48,2.8,2.8,0,0,1-1-2.47,2.68,2.68,0,0,1,1-2.42,3.84,3.84,0,0,1,2.48-.53h19.18a3.94,3.94,0,0,1,2.48.53,2.67,2.67,0,0,1,.94,2.42A2.78,2.78,0,0,1,205,77.64Zm25.31,24.08a4,4,0,0,1-2.48.47H215.7c-2.3,0-3.06-.89-3.06-3.07V75.34c0-2.3.88-3.12,3.06-3.12h11a3.94,3.94,0,0,1,2.48.53,2.5,2.5,0,0,1,.94,2.3,2.63,2.63,0,0,1-.94,2.36,4,4,0,0,1-2.48.47H219v5.66h6a3.85,3.85,0,0,1,2.42.48,2.63,2.63,0,0,1,1,2.36,2.6,2.6,0,0,1-1,2.3,3.91,3.91,0,0,1-2.42.47h-6v7.43h8.91a3.94,3.94,0,0,1,2.48.48,2.57,2.57,0,0,1,.94,2.3A2.63,2.63,0,0,1,230.34,101.72Zm29.44.71c-2.54,0-3.37-1.07-4.6-2.78l-4.37-6.07A24.52,24.52,0,0,1,249,90.74h-3.3v8.09a4.12,4.12,0,0,1-.48,2.59,3.08,3.08,0,0,1-2.65,1,3.25,3.25,0,0,1-2.72-1,4.19,4.19,0,0,1-.47-2.59V76.23c0-1.54,0-3,2.6-3.78a20.71,20.71,0,0,1,5.6-.59,18.16,18.16,0,0,1,7.85,1.42A8.07,8.07,0,0,1,260.25,81a8.85,8.85,0,0,1-5.43,8.32l7.55,9.73C263.55,100.6,263,102.43,259.78,102.43ZM306.27,99l-7.7-4.16-7.79,4,1.58-8.61L286.16,84l8.68-1.16,4-7.8,3.78,7.89,8.65,1.36-6.34,6Z"/></g></g></svg>